<svg width="1600" height="900" viewBox="0 0 1600 900" xmlns="http://www.w3.org/2000/svg" preserveAspectRatio="xMidYMid slice">
  <defs>
    <linearGradient id="g1" x1="0" y1="0" x2="1" y2="1">
      <stop offset="0%" stop-color="#ff8bd1"/>
      <stop offset="50%" stop-color="#a78bfa"/>
      <stop offset="100%" stop-color="#60a5fa"/>
    </linearGradient>
    <radialGradient id="glow" cx="50%" cy="40%" r="60%">
      <stop offset="0%" stop-color="#ffffff" stop-opacity="0.6"/>
      <stop offset="100%" stop-color="#ffffff" stop-opacity="0"/>
    </radialGradient>
    <filter id="blur10"><feGaussianBlur stdDeviation="50"/></filter>
  </defs>
  <rect width="100%" height="100%" fill="#0b0b13"/>
  <g filter="url(#blur10)">
    <circle cx="350" cy="200" r="220" fill="url(#g1)" opacity="0.5"/>
    <circle cx="1250" cy="300" r="260" fill="url(#g1)" opacity="0.45"/>
    <circle cx="800" cy="700" r="280" fill="url(#g1)" opacity="0.35"/>
  </g>
  <rect width="100%" height="100%" fill="url(#glow)"/>
  <!-- Abstract pilates silhouette -->
  <g transform="translate(0,30)" opacity="0.35">
    <path d="M200,640 C320,520 460,520 600,640 C740,760 900,760 1040,640 C1180,520 1320,520 1440,640" stroke="#ffffff" stroke-width="6" fill="none" stroke-linecap="round"/>
    <path d="M760,540 C780,480 860,460 900,500 C940,540 900,600 840,600 C800,600 780,580 760,540 Z" fill="#ffffff" opacity="0.15"/>
  </g>
</svg>


