<svg xmlns="http://www.w3.org/2000/svg" width="180" height="36" viewBox="0 0 180 36" role="img" aria-labelledby="title desc">
  <title id="title">fitBarbs – logo</title>
  <desc id="desc">Okrągły znak z gradientem i słowny znak fitBarbs</desc>
  <defs>
    <linearGradient id="g" x1="0" y1="0" x2="1" y2="1">
      <stop offset="0%" stop-color="#EC4899"/>
      <stop offset="100%" stop-color="#A78BFA"/>
    </linearGradient>
  </defs>
  <!-- Symbol -->
  <g transform="translate(2,2)">
    <rect x="0" y="0" width="32" height="32" rx="8" fill="url(#g)"/>
    <path d="M8 20c2.8-5.6 10.5-5.6 13.3 0 1.3 2.6 5 2.6 6.3 0" fill="none" stroke="#fff" stroke-width="2.6" stroke-linecap="round"/>
  </g>
  <!-- Wordmark -->
  <g fill="#0A0A0A" transform="translate(42,26)">
    <path d="M0 0v-16h3.2v16H0zm5.6-8.1c0-4.9 3-8.1 7.4-8.1 1.6 0 3 .3 4.2 1l-.9 2.8c-1-.6-2-.8-3.1-.8-2.6 0-4.5 2.1-4.5 5.1 0 3.2 1.8 5.2 4.5 5.2 1.2 0 2.3-.3 3.3-1l.8 2.8c-1.4.8-2.9 1.1-4.6 1.1-4.4 0-7.1-3.2-7.1-8.1zM28.8-16h3.2v6.5h6.5V-16h3.2V0h-3.2v-6.4H32V0h-3.2V-16zm17.8 0h3.2V0h-3.2V-16zm7.7 0h3.2l6.4 10.5V-16h3.1V0h-3.1l-6.5-10.6V0h-3.1V-16zm24.5 16.4c-4.1 0-6.9-3.2-6.9-8.1s2.8-8.1 6.9-8.1 6.9 3.2 6.9 8.1-2.7 8.1-6.9 8.1zm0-2.9c2.2 0 3.7-2 3.7-5.2s-1.5-5.2-3.7-5.2-3.7 2-3.7 5.2 1.5 5.2 3.7 5.2z"/>
  </g>
</svg>


